<svg xmlns="http://www.w3.org/2000/svg" viewBox="0 0 512 512" width="150" height="150">
  <g>
    <!-- 主要聊天气泡 -->
    <path d="M412,120H100c-33.1,0-60,26.9-60,60v152c0,33.1,26.9,60,60,60h35v80c0,5.5,3.2,10.6,8.3,12.9c1.8,0.8,3.7,1.1,5.6,1.1
      c3.3,0,6.6-1.3,9.1-3.7l90-90H412c33.1,0,60-26.9,60-60V180C472,146.9,445.1,120,412,120z" 
      fill="white" stroke="#dddddd" stroke-width="3" />
    
    <!-- 聊天小点 -->
    <circle cx="156" cy="256" r="20" fill="#555555" />
    <circle cx="256" cy="256" r="20" fill="#555555" />
    <circle cx="356" cy="256" r="20" fill="#555555" />
  </g>
</svg>